<svg width="100" height="100" viewBox="0 0 100 100" fill="none" xmlns="http://www.w3.org/2000/svg">
<mask id="mask0_2256_3" style="mask-type:alpha" maskUnits="userSpaceOnUse" x="0" y="0" width="100" height="100">
<rect width="100" height="100" fill="#D9D9D9"/>
</mask>
<g mask="url(#mask0_2256_3)">
<path d="M38.6624 63.8018L43.2601 59.7747L45.3576 62.8286L47.9752 65.2785L49.3009 65.6812L52.1702 68.8694L53.714 70.8326L57.6405 77.3768L59.4695 81.0852L62.3724 87.4616L60.2582 89.0892L59.6037 89.8611L61.416 91.6566L64.9398 93.2003L65.8459 89.0053L66.0976 86.0185L65.5103 83.5351L65.0908 80.9845L64.3692 78.2829L63.6477 77.2594L62.9765 75.9002L64.8894 72.2254L65.3593 70.8326L65.9298 68.6009L68.9669 73.7691L70.8295 76.5378L72.1048 77.8802L72.4236 79.1219L72.6082 82.78L72.9438 85.5654L76.3669 88.3677L77.7261 89.6094L78.5986 91.4888L78.8503 94.5931L79.7397 99.3753L79.6054 101.104H8.32422L9.0961 98.1168L12.0829 92.3781L14.6503 87.9314L16.5128 85.7165L21.4965 80.0281L24.3155 77.3433L27.0171 75.4639L33.1585 71.571L39.0986 67.0236L38.6624 63.8018Z" fill="#503530"/>
<path d="M52.7391 65.9161L48.5776 65.5469L46.1445 63.6172L44.2148 61.4694L43.2752 59.7746L42.4865 57.1737L41.5636 52.6935L41.0099 49.0858L40.926 46.0654L41.0602 41.1657C39.9695 35.3878 41.7482 23.7749 57.5885 23.5467C73.4287 23.3185 74.883 39.4261 73.6301 47.5085L73.0764 49.8744L71.6836 54.3547L70.5426 56.8549L68.4619 59.5397L65.7267 62.2245L62.5889 64.1206L58.9476 65.7483L56.1118 66.3188L52.7391 65.9161Z" fill="#F0B79A"/>
<path d="M51.3957 39.3366C51.2783 38.6989 48.5599 37.7761 46.6134 37.8767C44.8011 37.9705 43.9015 38.4103 43.9283 38.9339C43.9619 39.5883 46.0261 39.689 47.1 39.6218C48.174 39.5547 51.5132 39.9742 51.3957 39.3366Z" fill="#493838"/>
<path d="M56.5292 39.9273C56.7872 39.3249 60.3913 39.014 62.8417 39.5417C65.1232 40.0331 66.0513 40.9577 65.9277 41.4676C65.7732 42.105 63.2762 41.4565 61.9262 41.154C60.5762 40.8514 56.2712 40.5297 56.5292 39.9273Z" fill="#493838"/>
<path d="M45.4913 32.4399C44.3502 33.4064 43.6511 36.7803 43.4441 38.3465C41.0949 32.2274 40.7257 20.3449 58.0427 21.7679C75.3596 23.1908 75.684 39.5658 73.6816 47.5754L71.9029 53.8343L70.5773 56.9051L68.0099 60.11L65.258 62.627L60.1234 65.2615C65.6272 62.2894 68.7651 56.8682 69.7718 54.1699C70.7786 51.4717 69.7774 47.8271 69.5873 46.8035C66.8752 45.6554 65.6629 44.7109 64.1841 42.3569C64.4407 43.83 64.8141 44.5099 65.4426 45.7464C63.2067 44.2412 62.0033 43.34 60.4254 41.0816C60.882 42.8723 61.5774 43.737 63.1438 45.1759C61.477 44.3872 57.8044 42.4441 56.9855 40.3768C56.1667 38.3095 56.4542 35.1974 56.7003 33.8998C56.2304 32.5518 54.7336 29.6511 52.5053 28.8322C49.7198 27.8086 46.9175 31.2318 45.4913 32.4399Z" fill="black" fill-opacity="0.2"/>
<path d="M72.0352 53.2638L73.6796 47.0049L78.0759 47.1056V49.4212L77.3208 51.9885L75.8274 54.1196L74.2165 55.0257L72.9245 54.8411L72.0352 53.2638Z" fill="#F0B79A"/>
<path opacity="0.2" d="M72.0352 53.2638L73.6796 47.0049L78.0759 47.1056V49.4212L77.3208 51.9885L75.8274 54.1196L74.2165 55.0257L72.9245 54.8411L72.0352 53.2638Z" fill="black"/>
<path d="M66.6829 61.4694L69.9215 57.8114L70.0557 58.147L68.2267 62.5098L66.5823 66.3524L65.8943 68.8526L64.8204 72.3764L62.5383 76.907L61.0617 81.9074L59.8032 81.5718L58.0748 78.048L54.8027 72.5274L52.722 69.6413L49.3828 65.7651L52.6381 65.8993L56.3801 66.3524L58.9138 65.698L61.1959 64.7919L64.7197 62.8957L66.6829 61.4694Z" fill="#F0B79A"/>
<path opacity="0.2" d="M53.2258 67.4933C52.4606 67.4799 50.9493 67.085 50.2893 66.8892L49.3496 65.6979L52.7392 65.8321L56.5314 66.2852L60.1895 65.2112L64.2838 63.1641L67.0021 61.2008L70.2574 57.5931L67.1699 64.7414L66.1296 68.1142L64.7033 72.5944L62.6561 76.7223L61.1124 81.9073L59.7364 81.5549L58.3437 78.3332C60.4733 74.4613 63.3745 70.212 63.9146 65.8321C63.277 66.0335 59.2162 67.5571 58.3437 67.8121C57.253 68.1309 54.1822 67.5101 53.2258 67.4933Z" fill="black"/>
<path d="M61.1289 81.8737L62.572 76.8733L63.8305 78.5681L63.2096 79.2393L64.0822 80.2293L63.2096 80.7998L63.713 81.6388L61.1289 81.8737Z" fill="black"/>
<path d="M62.59 76.7559L62.9759 75.984L64.1505 77.8298L65.0566 80.7999L65.3755 83.0651L65.9628 84.7599L66.1473 86.9581L65.0399 93.2674L61.5329 91.6733L59.6367 89.9281L62.288 87.4447L59.771 81.7228L61.7174 82.0751L63.6136 81.6892L63.2612 81.0012L64.0498 80.33L63.2612 79.4239L63.8149 78.6017L62.59 76.7559Z" fill="#596773"/>
<mask id="mask1_2256_3" style="mask-type:alpha" maskUnits="userSpaceOnUse" x="31" y="16" width="57" height="50">
<path d="M44.6671 32.0035C45.439 30.2416 49.3487 27.2212 52.1677 27.238C55.8761 27.2601 56.9836 31.7854 56.9836 31.7854C56.9911 31.8861 56.5473 34.0674 56.5473 34.0674C55.8493 38.1886 57.3304 41.2213 58.1582 42.2225C57.5198 39.4447 57.2267 37.8528 58.2924 34.1681C57.9904 36.0307 57.6326 37.3731 61.6316 40.3096C60.6584 38.5141 61.6316 36.0307 62.4371 33.0607C62.3364 38.8665 63.8466 40.7459 67.9409 43.2629C65.9063 41.5931 63.9733 37.5575 64.7863 36.0307C64.4003 40.2593 68.696 42.3567 70.1558 42.944C71.608 43.5282 72.0473 46.0549 72.3162 47.601L72.3205 47.6257C72.5889 49.1694 71.7667 50.042 71.8003 50.4782C71.8271 50.8273 72.6393 50.2993 73.042 49.9916L73.4951 47.4075C73.7971 47.3236 74.9751 47.1558 75.7268 47.1558C76.4785 47.1558 77.4999 47.469 78.1095 47.6257C78.1599 48.3024 78.1095 50.0487 77.5055 51.6193C76.7504 53.5825 74.7368 54.9753 73.6629 55.076C72.8037 55.1565 72.231 53.9461 72.052 53.3308L70.3069 57.6097L67.169 65.0432C68.5058 65.1775 71.4378 65.2714 72.4715 64.5734C73.7635 63.7008 74.1495 59.7408 74.4347 58.4991C74.72 57.2573 77.8243 53.3644 78.2606 51.9549C78.6096 50.8273 80.0057 50.1762 80.6601 49.9916C80.772 48.9904 81.0762 46.8538 81.3984 46.3168C81.7206 45.7799 82.9086 45.6288 83.3617 45.7295C83.5518 45.3324 83.8953 44.3267 83.7476 43.481C83.5999 42.6353 82.12 41.4842 81.3984 41.0143C83.5743 42.1262 84.8899 42.4263 87.4392 42.3567C85.4927 41.9037 84.8047 41.313 83.3281 40.3599C81.8515 39.4068 80.1903 35.3483 79.9386 34.4366C81.9927 34.9257 82.9215 35.6399 84.3013 37.457C84.3908 37.155 84.345 36.2287 83.4456 34.94C82.3213 33.3291 82.0696 32.3056 83.3281 32.9432C84.3349 33.4533 86.1136 33.1557 86.7512 32.9432C86.3765 32.7978 82.6233 31.8022 81.6333 30.1242C80.1627 27.6316 81.5743 27.1373 81.9018 27.4897C80.3189 25.7837 76.8846 22.1302 76.0121 21.2308C74.9214 20.1065 73.7635 19.083 71.5318 18.395C69.3001 17.707 66.2293 18.3614 65.1722 18.4789C64.1151 18.5963 60.0375 18.4621 57.336 17.4385C54.6344 16.4149 51.6811 16.8009 49.3152 17.4385C46.9492 18.0762 43.8113 21.6503 42.4186 23.1437C41.3044 24.3384 39.4038 27.4114 38.5928 28.7985C38.4362 29.2908 37.7269 30.4228 36.1429 31.0135C34.5589 31.6042 32.3283 31.5169 31.4277 31.5001C33.6424 32.5434 35.0249 32.9146 37.6867 32.2217C37.5244 32.9264 36.7772 36.7556 37.0322 38.1114C37.2873 39.4672 38.9507 40.7123 39.7506 41.1654C39.7841 41.5849 39.8513 42.6588 39.8513 43.5985C39.8513 44.5381 40.5336 45.847 40.8748 46.3839L43.4254 39.4203C43.5261 38.475 43.7442 36.326 43.8113 35.2924C43.8952 34.0003 43.8952 33.7654 44.6671 32.0035Z" fill="#493838"/>
</mask>
<g mask="url(#mask1_2256_3)">
<path d="M44.6671 32.0035C45.439 30.2416 49.3487 27.2212 52.1677 27.238C55.8761 27.2601 56.9836 31.7854 56.9836 31.7854C56.9911 31.8861 56.5473 34.0674 56.5473 34.0674C55.8493 38.1886 57.3304 41.2213 58.1582 42.2225C57.5198 39.4447 57.2267 37.8528 58.2924 34.1681C57.9904 36.0307 57.6326 37.3731 61.6316 40.3096C60.6584 38.5141 61.6316 36.0307 62.4371 33.0607C62.3364 38.8665 63.8466 40.7459 67.9409 43.2629C65.9063 41.5931 63.9733 37.5575 64.7863 36.0307C64.4003 40.2593 68.696 42.3567 70.1558 42.944C71.608 43.5282 72.0473 46.0549 72.3162 47.601L72.3205 47.6257C72.5889 49.1694 71.7667 50.042 71.8003 50.4782C71.8271 50.8273 72.6393 50.2993 73.042 49.9916L73.4951 47.4075C73.7971 47.3236 74.9751 47.1558 75.7268 47.1558C76.4785 47.1558 77.4999 47.469 78.1095 47.6257C78.1599 48.3024 78.1095 50.0487 77.5055 51.6193C76.7504 53.5825 74.7368 54.9753 73.6629 55.076C72.8037 55.1565 72.231 53.9461 72.052 53.3308L70.3069 57.6097L67.169 65.0432C68.5058 65.1775 71.4378 65.2714 72.4715 64.5734C73.7635 63.7008 74.1495 59.7408 74.4347 58.4991C74.72 57.2573 77.8243 53.3644 78.2606 51.9549C78.6096 50.8273 80.0057 50.1762 80.6601 49.9916C80.772 48.9904 81.0762 46.8538 81.3984 46.3168C81.7206 45.7799 82.9086 45.6288 83.3617 45.7295C83.5518 45.3324 83.8953 44.3267 83.7476 43.481C83.5999 42.6353 82.12 41.4842 81.3984 41.0143C83.5743 42.1262 84.8899 42.4263 87.4392 42.3567C85.4927 41.9037 84.8047 41.313 83.3281 40.3599C81.8515 39.4068 80.1903 35.3483 79.9386 34.4366C81.9927 34.9257 82.9215 35.6399 84.3013 37.457C84.3908 37.155 84.345 36.2287 83.4456 34.94C82.3213 33.3291 82.0696 32.3056 83.3281 32.9432C84.3349 33.4533 86.1136 33.1557 86.7512 32.9432C86.3765 32.7978 82.6233 31.8022 81.6333 30.1242C80.1627 27.6316 81.5743 27.1373 81.9018 27.4897C80.3189 25.7837 76.8846 22.1302 76.0121 21.2308C74.9214 20.1065 73.7635 19.083 71.5318 18.395C69.3001 17.707 66.2293 18.3614 65.1722 18.4789C64.1151 18.5963 60.0375 18.4621 57.336 17.4385C54.6344 16.4149 51.6811 16.8009 49.3152 17.4385C46.9492 18.0762 43.8113 21.6503 42.4186 23.1437C41.3044 24.3384 39.4038 27.4114 38.5928 28.7985C38.4362 29.2908 37.7269 30.4228 36.1429 31.0135C34.5589 31.6042 32.3283 31.5169 31.4277 31.5001C33.6424 32.5434 35.0249 32.9146 37.6867 32.2217C37.5244 32.9264 36.7772 36.7556 37.0322 38.1114C37.2873 39.4672 38.9507 40.7123 39.7506 41.1654C39.7841 41.5849 39.8513 42.6588 39.8513 43.5985C39.8513 44.5381 40.5336 45.847 40.8748 46.3839L43.4254 39.4203C43.5261 38.475 43.7442 36.326 43.8113 35.2924C43.8952 34.0003 43.8952 33.7654 44.6671 32.0035Z" fill="#493838"/>
<path opacity="0.2" d="M43.2925 27.0537C43.749 26.0066 46.0333 23.6418 47.1184 22.5902L44.8867 23.9326C44.4168 24.4696 43.3463 25.6777 42.8227 26.2147C42.1683 26.8859 40.0708 29.9398 39.3828 30.8124C38.8325 31.5104 37.9901 31.9646 37.6377 32.1044L37.1679 33.8999C37.0392 34.0565 37.1746 34.212 38.7452 33.5811C40.7084 32.7924 42.722 28.3625 43.2925 27.0537Z" fill="black"/>
<path d="M59.9541 30.376C58.9204 31.0875 58.4159 33.2006 58.2928 34.1683C57.823 36.1986 58.2929 37.4236 59.7359 38.7492C58.813 35.6449 59.2158 31.5506 60.491 30.8458C61.7663 30.1411 61.3971 26.0803 61.3971 26.0803C61.3468 27.2158 60.9877 29.6645 59.9541 30.376Z" fill="black" fill-opacity="0.2"/>
<path opacity="0.2" d="M71.2823 32.6246C71.001 28.0077 69.7618 25.2658 65.7617 20.1235H66.198L68.7318 22.0197L70.5272 24.6877L71.4669 28.396L71.2823 32.6246Z" fill="black"/>
<path opacity="0.2" d="M84.3379 37.4571C83.3367 35.7288 80.2604 31.3157 78.918 30.0404L82.8277 32.7252L85.5125 33.2622L84.3379 37.4571Z" fill="black"/>
<path opacity="0.2" d="M43.8967 38.6318L39.4668 41.4844V44.3538L40.9434 47.0218L43.8967 38.6318Z" fill="black"/>
<path opacity="0.2" d="M78.2137 55.3277C78.3312 53.7839 78.2305 49.4379 78.2137 47.7096L72.4079 51.7368C69.2476 56.1723 64.012 67.0828 67.6088 66.9898C75.3947 66.7884 78.0963 56.8714 78.2137 55.3277Z" fill="black"/>
<path opacity="0.2" d="M52.7554 22.5734C52.4198 25.7616 53.7454 26.8858 55.3395 28.7148L46.832 29.5874C49.654 27.4546 51.9164 24.6876 52.7554 22.5734Z" fill="black"/>
<path opacity="0.2" d="M74.1011 43.5819C69.5175 42.2902 67.4953 40.6146 64.7882 36.0309L64.6875 36.7524L64.8889 38.2458L65.946 40.4272L68.3287 42.4912L71.4163 50.965L77.843 52.3578C82.2897 51.4013 80.2213 47.6006 80.4103 46.4177C80.5744 45.3906 78.3296 43.5819 74.1011 43.5819Z" fill="black"/>
<path opacity="0.2" d="M59.3164 20.9625C59.9517 19.5425 60.0977 18.7378 59.4127 18.1099L62.6053 18.5403C61.0903 18.9913 60.2915 19.7949 59.3164 20.9625Z" fill="black"/>
<path opacity="0.2" d="M72.3867 36.1986C73.1586 35.5777 73.3475 35.1969 72.5881 33.2621C73.9416 35.2109 75.3013 35.841 79.0819 35.9133C76.8192 37.4081 74.3835 36.8362 72.3867 36.1986Z" fill="black"/>
<path opacity="0.2" d="M81.8674 30.4263C79.7928 27.314 78.9348 25.6674 77.4375 22.7411L83.1259 25.6608L81.8674 30.4263Z" fill="black"/>
</g>
<path d="M64.5207 26.4329C64.8395 27.8424 62.7512 30.8257 62.4735 33.7154C62.0205 38.4305 64.1012 41.5013 67.7928 43.2967" stroke="black" stroke-width="0.503398" stroke-linecap="round" stroke-linejoin="round"/>
<path d="M60.3256 42.9276C58.9832 42.7531 58.3343 43.2464 58.1777 43.5149C58.6028 43.7163 59.6141 44.1324 60.2584 44.1861C60.9028 44.2398 62.3392 43.9624 62.9768 43.817C62.6524 43.5932 61.668 43.1021 60.3256 42.9276Z" fill="#E2E2E2"/>
<path d="M57.5352 44.1357C57.8819 43.7218 58.8776 42.8974 60.0857 42.9108C61.2939 42.9242 63.6542 43.9008 64.6834 44.3874" stroke="black" stroke-width="0.503398" stroke-linecap="round" stroke-linejoin="round"/>
<path d="M58.0938 43.6322C58.6363 43.8 59.8892 44.1356 60.5604 44.1356C61.2316 44.1356 62.6299 43.9007 63.2452 43.7832" stroke="black" stroke-width="0.503398" stroke-linecap="round" stroke-linejoin="round"/>
<path d="M58.1777 43.5817C58.7147 43.0783 59.4749 42.9925 60.1242 42.877C60.7786 43.1454 60.6444 43.9676 60.1074 44.169C59.4108 43.9797 58.7315 43.9173 58.1777 43.5817Z" fill="black"/>
<path d="M48.1761 41.6521C46.8337 41.4776 45.9164 42.038 45.7598 42.3065C46.1849 42.5078 47.4646 43.078 48.109 43.1317C48.7533 43.1854 49.6863 43.1063 50.3239 42.9609C49.9995 42.7372 49.5185 41.8266 48.1761 41.6521Z" fill="#E2E2E2"/>
<path d="M45.1543 42.5247C45.6018 42.1332 46.8356 41.4173 48.1915 41.6857C49.5473 41.9542 50.5127 42.9275 50.8259 43.3805" stroke="black" stroke-width="0.503398" stroke-linecap="round" stroke-linejoin="round"/>
<path d="M45.6738 42.2058C45.9647 42.4519 46.8753 42.971 48.1908 43.0784C49.5064 43.1858 50.2603 43.0896 50.4729 43.028" stroke="black" stroke-width="0.503398" stroke-linecap="round" stroke-linejoin="round"/>
<path d="M45.6738 42.1891C46.2546 41.8662 46.6019 41.7509 47.2511 41.6354C47.9056 41.9039 47.7713 42.7261 47.2344 42.9274C46.5377 42.7381 46.1928 42.5781 45.6738 42.1891Z" fill="black"/>
<path opacity="0.3" d="M59.9032 50.1094L57.3862 49.0858L56.2619 47.3742L55.3894 44.4209L55.3223 42.9443L56.178 41.7194L58.0742 40.6958L61.3463 41.0314L64.6687 41.7697L65.6084 43.196L66.0279 44.6223L65.7762 47.2903L64.3667 49.5221L63.3263 50.059L59.9032 50.1094Z" fill="white"/>
<path opacity="0.3" d="M45.1044 39.4874C44.0305 39.4337 42.9231 39.5993 42.5036 39.6888L41.5807 40.5278L40.6074 42.0547L40.7081 44.2194C40.999 44.9465 41.7652 46.6592 42.5036 47.6928C43.4265 48.9849 48.5276 48.5318 49.1316 48.3304C49.7326 48.1301 50.3003 46.8173 50.8348 45.5812L50.8432 45.5618C51.2728 44.5684 51.3354 43.0112 51.313 42.3568L49.3666 40.0412C48.3933 39.8789 46.1784 39.5411 45.1044 39.4874Z" fill="white"/>
<path d="M42.5709 39.6386C41.9131 39.8803 41.0384 41.2607 40.7587 41.8704C40.5586 42.3066 40.6949 43.9175 40.8426 44.5216C41.0272 45.2767 41.7151 46.6023 42.3528 47.4581C42.9904 48.3139 45.0376 48.4984 45.8933 48.5656C46.7491 48.6327 48.6788 48.5823 49.0983 48.2971C49.5178 48.0118 50.0716 47.2903 50.4911 46.4009C50.9106 45.5116 51.4307 43.2631 51.3301 42.5248C51.2294 41.7865 49.9877 40.5951 49.4004 40.1588C48.8131 39.7225 43.7287 39.2133 42.5709 39.6386Z" stroke="black" stroke-width="0.503398" stroke-linecap="round" stroke-linejoin="round"/>
<path d="M64.6178 41.7863C65.2902 42.1399 65.767 43.5246 65.977 44.2027C66.2056 44.941 65.9769 46.1156 65.8595 46.7868C65.7184 47.5937 65.1197 48.6962 64.3046 49.4883C63.4895 50.2803 61.2565 50.1551 60.3246 50.0923C59.3927 50.0295 57.7445 49.3805 57.3353 49.0185C56.9261 48.6565 56.278 47.5091 55.9593 46.5183C55.6406 45.5275 55.1219 43.704 55.3729 42.961C55.7412 41.8702 57.0232 41.193 57.7213 40.8299C58.4193 40.4668 63.7773 41.3445 64.6178 41.7863Z" stroke="black" stroke-width="0.503398" stroke-linecap="round" stroke-linejoin="round"/>
<path d="M51.3145 42.508L52.2206 42.1892C53.1364 42.181 53.6435 42.2426 54.5362 42.4744L55.3081 42.9443" stroke="black" stroke-width="0.503398" stroke-linecap="round" stroke-linejoin="round"/>
<path d="M46.8652 39.6219L60.4738 40.914" stroke="black" stroke-width="0.503398" stroke-linecap="round" stroke-linejoin="round"/>
<path d="M65.8945 43.8505L67.7571 44.27L66.1127 44.6391" stroke="black" stroke-width="0.503398" stroke-linecap="round" stroke-linejoin="round"/>
<path d="M67.6719 44.2532L76.0451 42.4745" stroke="black" stroke-width="0.503398" stroke-linecap="round" stroke-linejoin="round"/>
<path d="M40.9105 41.5516L39.3164 41.4845L40.6252 42.1557" stroke="black" stroke-width="0.503398" stroke-linecap="round" stroke-linejoin="round"/>
<path d="M39.3164 41.5514L43.2094 39.0511" stroke="black" stroke-width="0.503398" stroke-linecap="round" stroke-linejoin="round"/>
<path d="M49.7031 51.8375C49.9213 51.7257 50.4616 51.5153 50.8777 51.569C51.2939 51.6227 51.9572 52.1731 52.2369 52.4416C52.5277 52.3241 53.2773 52.0825 53.9485 52.0557C54.6196 52.0288 55.2461 52.1452 55.4754 52.2067" stroke="black" stroke-width="0.503398" stroke-linecap="round" stroke-linejoin="round"/>
<path d="M40.9935 45.1089C40.9935 45.3102 40.8089 47.693 41.0774 49.522C41.3459 51.351 41.8661 54.3043 42.3359 56.2843C42.8058 58.2644 42.9568 59.5396 43.8293 60.8317C44.7019 62.1238 47.1518 65.0099 48.4103 65.4462C49.6688 65.8825 52.2193 65.8321 52.7731 65.916C53.3268 65.9999 55.271 66.3297 56.4143 66.2852C58.9984 66.1845 64.7036 63.2312 66.499 61.5868C68.2945 59.9424 70.2913 57.5428 71.0464 55.932C71.8015 54.3211 73.4292 49.2368 73.597 47.5588" stroke="black" stroke-width="0.503398" stroke-linecap="round" stroke-linejoin="round"/>
<path d="M43.2424 59.7241L38.6615 63.7681C38.6223 64.6798 38.7856 66.8355 39.7522 68.1644C40.9603 69.8256 42.8733 72.7789 43.6116 74.3562C44.3499 75.9335 47.5884 82.2596 48.0583 83.4677C48.4341 84.4343 50.7878 88.636 51.9177 90.616C53.2041 90.1909 56.012 89.2837 56.9516 89.0555C57.8913 88.8273 60.9453 87.92 62.3548 87.4949C61.2361 84.8996 58.7941 79.36 57.9752 77.9639C56.9516 76.2188 54.2668 71.1513 52.4882 69.3223C51.0652 67.859 49.7027 66.2627 49.1993 65.6474" stroke="black" stroke-width="0.503398" stroke-linecap="round" stroke-linejoin="round"/>
<path d="M39.1483 66.9564C37.2577 68.4386 33.2551 71.5441 32.3692 72.1079C31.2617 72.8126 28.2749 74.692 26.5465 75.7995C24.8182 76.9069 22.1837 79.038 21.3951 80.179C20.6064 81.3201 15.3711 86.7568 14.7502 87.7132C14.1294 88.6697 9.6659 96.3717 9.09538 98.251C8.63897 99.7545 8.43537 100.611 8.39062 100.852" stroke="black" stroke-width="0.503398" stroke-linecap="round" stroke-linejoin="round"/>
<path d="M16.0586 86.1357C18.0107 84.6871 23.133 82.2898 28.0059 84.2899C34.097 86.7902 35.2213 92.0591 35.6408 93.4182C35.9764 94.5056 36.6532 98.8493 36.9496 100.885" stroke="black" stroke-width="0.503398" stroke-linecap="round" stroke-linejoin="round"/>
<path d="M42.655 72.5944C42.1572 73.2208 41.0509 74.5811 40.6079 75.0107C40.0541 75.5476 37.5371 76.5712 36.8156 77.041C36.0941 77.5109 31.9662 79.7426 31.295 80.2292C30.6418 80.7028 29.0017 82.9811 27.8887 84.2061" stroke="black" stroke-width="0.503398" stroke-linecap="round" stroke-linejoin="round"/>
<path d="M62.3391 87.4951C61.6735 88.0097 60.3054 89.0859 60.1577 89.2738C60.01 89.4617 59.7606 89.7884 59.6543 89.9282C60.0067 90.303 60.849 91.1565 61.3994 91.5726C61.9498 91.9888 64.6323 93.0605 65.1749 93.3345" stroke="black" stroke-width="0.503398" stroke-linecap="round" stroke-linejoin="round"/>
<path d="M32.4375 79.5245C32.4487 80.1734 32.716 81.8737 33.696 83.4846C34.9209 85.4982 35.5418 86.5553 36.2801 87.3608C37.0184 88.1662 39.1327 90.3979 39.6361 91.5222C40.1395 92.6465 41.7504 95.4319 42.1699 97.3281C42.5055 98.845 42.8467 100.332 42.9753 100.885" stroke="black" stroke-width="0.503398" stroke-linecap="round" stroke-linejoin="round"/>
<path d="M32.4531 79.5748C33.0628 79.9999 34.6278 80.9306 36.0105 81.2528C37.3931 81.575 38.8575 82.5281 39.4168 82.9644" stroke="black" stroke-width="0.503398" stroke-linecap="round" stroke-linejoin="round"/>
<path d="M37.8398 76.5376C38.5166 76.739 39.9877 77.3229 40.4575 78.0478C40.9274 78.7727 42.074 81.0346 42.5886 82.075" stroke="black" stroke-width="0.503398" stroke-linecap="round" stroke-linejoin="round"/>
<path d="M70.7294 56.5359C69.7506 58.9075 67.7225 63.7781 67.4406 64.2882C67.0882 64.9259 66.266 67.0066 66.031 68.1812C65.7961 69.3558 65.2088 71.7889 64.739 72.5607C64.2692 73.3326 62.8429 76.0342 62.5408 77.0074C62.2992 77.786 61.534 80.4641 61.1816 81.7058" stroke="black" stroke-width="0.503398" stroke-linecap="round" stroke-linejoin="round"/>
<path d="M59.6699 81.404C59.972 81.706 60.8613 81.8604 61.5325 81.9409C62.2037 82.0215 63.328 81.8402 63.7139 81.555C63.4846 81.4935 63.1132 81.0617 63.328 80.8335C63.5964 80.5482 64.1747 80.4125 63.9824 80.179C63.7474 79.8938 63.2455 79.4761 63.328 79.2561C63.4286 78.9877 63.932 78.7695 63.7139 78.3668C63.5394 78.0446 62.9756 77.0244 62.6232 76.7727" stroke="black" stroke-width="0.503398" stroke-linecap="round" stroke-linejoin="round"/>
<path d="M63.0254 75.816C63.1484 76.1964 63.4818 77.0645 63.8308 77.494C64.2671 78.031 64.4349 78.5344 64.5524 79.0378C64.6698 79.5412 65.0054 80.4137 65.1061 81.1521C65.2068 81.8904 65.3242 82.9979 65.5592 83.6523C65.7941 84.3067 66.2136 85.9847 66.0793 87.2432C65.9719 88.25 65.1341 92.6631 65.0054 92.9987" stroke="black" stroke-width="0.503398" stroke-linecap="round" stroke-linejoin="round"/>
<path d="M57.337 89.7537C57.6618 89.7162 58.0021 89.8658 58.2908 90.189C58.5788 90.5116 58.7974 90.9911 58.8624 91.5533C58.9274 92.1154 58.824 92.6322 58.6173 93.012C58.41 93.3926 58.1128 93.6159 57.788 93.6535C57.4632 93.6911 57.1229 93.5415 56.8342 93.2182C56.5462 92.8956 56.3276 92.4161 56.2626 91.854C56.1976 91.2918 56.3009 90.7751 56.5077 90.3952C56.715 90.0147 57.0121 89.7913 57.337 89.7537Z" fill="black" stroke="black" stroke-width="0.503398" stroke-linecap="round" stroke-linejoin="round"/>
<path d="M68.0373 89.1131C68.228 89.0587 68.4768 89.126 68.7376 89.3667C68.9949 89.6043 69.2293 89.9843 69.3636 90.4532C69.4977 90.922 69.4997 91.3677 69.4071 91.7054C69.3132 92.048 69.1381 92.2373 68.9473 92.2921C68.7565 92.3467 68.507 92.279 68.2458 92.0378C67.9886 91.8003 67.7543 91.421 67.6201 90.9523C67.4859 90.4834 67.4837 90.0369 67.5763 89.6992C67.6703 89.3566 67.8465 89.1678 68.0373 89.1131Z" fill="black" stroke="black" stroke-width="0.503398" stroke-linecap="round" stroke-linejoin="round"/>
<path d="M57.6387 93.8378C57.7729 95.1298 58.1756 96.8749 58.6287 98.2173C58.9911 99.2913 59.6411 100.589 59.9207 101.103" stroke="black" stroke-width="0.503398" stroke-linecap="round" stroke-linejoin="round"/>
<path d="M65.9798 68.6177C66.472 69.5014 67.5202 71.3562 67.7753 71.7052C68.0941 72.1415 69.2855 74.2725 69.856 75.1954C70.4265 76.1183 71.0977 76.8231 71.7186 77.4439C72.3394 78.0648 72.4569 79.2897 72.4569 79.7428C72.4569 80.1958 72.5072 82.5786 72.675 83.3337C72.8428 84.0888 73.0442 86.1024 73.0609 86.7736C73.0777 87.4448 73.2791 88.804 73.4469 89.2402C73.6147 89.6765 74.6047 91.0189 74.9403 91.7404C75.2088 92.3177 75.2871 92.7752 75.2927 92.9318C75.0578 92.7584 74.5208 92.321 74.2523 91.9586C73.9167 91.5055 73.5476 90.2974 72.9938 89.7101C72.4401 89.1228 70.7285 88.569 69.8895 88.5187C69.2183 88.4784 68.48 88.7256 68.1948 88.8543C67.4341 89.2962 65.6643 91.1733 64.671 95.1468C63.6776 99.1203 63.5859 100.796 63.6642 101.137" stroke="black" stroke-width="0.503398" stroke-linecap="round" stroke-linejoin="round"/>
<path d="M72.9609 85.4143C73.2518 85.7108 73.9778 86.411 74.555 86.8406C75.2766 87.3776 77.8439 89.5254 78.3641 90.8007C78.8843 92.0759 78.6661 93.6868 78.8843 94.7104C79.1024 95.734 79.6226 98.3181 79.6729 99.4256C79.7132 100.312 79.6561 100.869 79.6226 101.036" stroke="black" stroke-width="0.503398" stroke-linecap="round" stroke-linejoin="round"/>
<path d="M73.9493 48.2635C74.1506 48.5544 74.5298 49.2703 74.4359 49.8073C74.3184 50.4785 73.815 50.6966 73.6137 51.0994C73.4526 51.4215 73.2781 51.9272 73.2109 52.1397C73.7143 51.9775 74.8319 51.5222 75.2749 50.9987C75.7179 50.4751 76.0859 49.5724 76.2145 49.1864" stroke="black" stroke-width="0.503398" stroke-linecap="round" stroke-linejoin="round"/>
<path d="M75.8301 52.0726C76.1936 51.7426 76.9711 50.9014 77.1725 50.1765C77.3738 49.4516 77.4354 48.2076 77.441 47.6763" stroke="black" stroke-width="0.503398" stroke-linecap="round" stroke-linejoin="round"/>
<path d="M72.1211 53.1127C72.1994 53.6777 72.5339 54.8411 73.3796 54.9753C74.4367 55.1431 75.4267 54.5558 76.1818 53.6833C76.9369 52.8107 77.5746 51.569 77.7424 50.8474C77.9102 50.1259 78.3129 48.5989 78.1115 47.7096" stroke="black" stroke-width="0.503398" stroke-linecap="round" stroke-linejoin="round"/>
<path d="M48.0078 56.3179C48.5616 56.6702 49.3267 56.5259 49.9039 56.687C50.6255 56.8884 51.5484 56.9387 52.4545 57.0059C53.3606 57.073 54.4513 57.2911 56.2635 57.3415C57.7133 57.3817 58.0926 57.5931 58.6966 57.3415" stroke="black" stroke-width="0.503398" stroke-linecap="round" stroke-linejoin="round"/>
<path d="M59.9564 23.7816C60.8289 27.5571 57.5755 27.9463 56.785 32.9938C56.3487 35.7793 56.0635 39.7729 58.1441 42.2396" stroke="black" stroke-width="0.503398" stroke-linecap="round" stroke-linejoin="round"/>
<path d="M31.4473 31.6345C32.9407 32.5351 36.5349 33.7085 38.9647 31.1983C42.0019 28.0604 43.2771 24.3353 47.0023 22.5734" stroke="black" stroke-width="0.503398" stroke-linecap="round" stroke-linejoin="round"/>
<path d="M59.2155 18.0931C56.9726 16.9576 51.4296 15.4586 47.2011 18.5461C42.9725 21.6336 39.6892 26.7571 38.5762 28.9329" stroke="black" stroke-width="0.503398" stroke-linecap="round" stroke-linejoin="round"/>
<path d="M37.7382 32.1381C37.2068 33.6706 36.3992 37.1687 37.4194 38.9004C38.4396 40.6321 39.5001 41.1097 39.9028 41.1321" stroke="black" stroke-width="0.503398" stroke-linecap="round" stroke-linejoin="round"/>
<path d="M62.3379 18.8314C67.5397 17.9924 72.0535 17.6904 74.7383 19.9724C76.8861 21.7981 80.3763 25.7224 81.853 27.4563" stroke="black" stroke-width="0.503398" stroke-linecap="round" stroke-linejoin="round"/>
<path d="M71.3496 23.3621C75.4271 25.426 77.3904 27.9598 78.4307 29.2015C81.1441 32.44 84.0353 33.7992 86.6026 33.0273" stroke="black" stroke-width="0.503398" stroke-linecap="round" stroke-linejoin="round"/>
<path d="M74.0645 43.582C79.2356 43.6159 80.7861 44.9283 80.6422 50.0591M79.4173 37.1553C79.669 38.1117 80.5247 40.3166 81.9342 41.4845C83.6961 42.9444 84.468 43.9344 83.3773 45.6459" stroke="black" stroke-width="0.503398" stroke-linecap="round" stroke-linejoin="round"/>
<path d="M65.7285 19.9558C71.1612 22.5955 72.86 27.8424 70.2088 38.5816" stroke="black" stroke-width="0.503398" stroke-linecap="round" stroke-linejoin="round"/>
<path d="M57.1719 88.9381L57.2726 89.7603" stroke="black" stroke-width="0.503398"/>
<path opacity="0.2" d="M47.487 66.5201C46.2789 66.3691 45.6077 64.2213 44.2988 61.5365C45.1155 62.4706 46.8964 64.4562 47.487 64.926C48.0777 65.3959 49.0308 65.6028 49.4335 65.6476L50.5913 67.2417C49.8921 67.1913 48.4535 66.641 47.487 66.5201Z" fill="black"/>
<path opacity="0.2" d="M63.7809 101.02H59.7873C58.6631 97.9321 56.1648 94.0285 56.4482 90.5657H51.8672C51.8549 90.4459 59.6642 87.9448 62.0023 87.6796C62.0023 87.6796 60.3511 89.3369 59.6027 89.9784L61.3646 91.5222L65.1736 93.284L63.7809 99.4591V101.02Z" fill="black"/>
<path opacity="0.2" d="M63.7981 85.045C65.0868 84.1858 64.9727 81.1632 64.7546 79.7593L65.3083 82.679L65.9124 84.7765L66.1977 86.9747L64.9727 93.2L61.4993 91.6227L59.6367 89.8944L62.3383 87.4781L61.9188 86.3538C62.0083 86.2755 62.5094 85.9041 63.7981 85.045Z" fill="black"/>
<path opacity="0.2" d="M45.6602 63.0969C45.6856 63.1111 45.7086 63.133 45.7291 63.1624L47.9422 65.2615L49.2679 65.6307L52.7413 69.574L56.3993 75.061L59.3526 80.8333L62.3059 87.495L51.9023 90.616L48.6973 84.7934L43.7305 74.6415C44.8899 71.1736 46.3306 64.0193 45.7291 63.1624L45.6602 63.0969Z" fill="black"/>
<path opacity="0.2" d="M65.761 91.9416L67.7746 89.1561L69.1338 88.5185L71.1474 88.7366L73.1274 89.7937L74.1678 91.8241L75.1914 92.8812V92.059L73.3456 88.938L73.01 85.5652L76.2485 88.25L78.4802 90.767L78.799 94.1901L79.6045 99.2073V101.053H63.5293L64.3851 95.9855L65.761 91.9416Z" fill="black"/>
<path opacity="0.2" d="M26.6816 101.053C28.0392 94.7416 28.1882 91.0249 27.9737 84.2565L29.937 81.6388C31.5128 83.491 32.4962 84.3218 34.5347 85.2129L32.9238 82.0248L32.5378 79.7259L34.5347 80.8334L37.2362 81.6388L39.4176 82.8134C37.1542 81.4219 35.7237 80.753 34.1991 78.6016L35.3904 77.9137C37.2062 79.4236 38.8996 81.6489 40.8271 82.0248C39.2736 81.3569 37.7974 78.8665 36.3469 77.1082L37.8906 76.5377L39.2666 77.1082L40.6929 78.1821C40.0266 77.1067 39.836 76.5142 40.1895 75.4974L41.3473 74.2724L42.8072 72.6112L46.0625 79.4071L51.9187 90.5993L57.1037 89.0052L57.3889 89.8442L56.4828 90.2134L56.1472 91.6397L56.9023 93.3009L57.5567 93.5694L58.1608 96.9253L59.8556 101.053H26.6816Z" fill="black"/>
<path opacity="0.2" d="M68.3961 72.6448L65.963 68.6847L64.9059 72.3595L63.0098 75.5477L63.8655 77.5613L64.52 78.8198L65.1912 81.9576L65.963 84.5585L68.3961 72.6448Z" fill="black"/>
</g>
</svg>
